# Blender v2.90.1 OBJ File: ''
# www.blender.org
mtllib DrawOBB1.mtl
o 立方体
v -0.975000 -0.975000 1.000000
v -0.975000 0.975000 1.000000
v -0.975000 -0.975000 -1.000000
v -0.975000 0.975000 -1.000000
v 0.975000 -0.975000 1.000000
v 0.975000 0.975000 1.000000
v 1.000000 -0.975000 -0.975000
v 1.000000 0.975000 -0.975000
v -1.000000 -0.975000 0.975000
v -1.000000 0.975000 0.975000
v 1.000000 0.975000 0.975000
v 1.000000 -0.975000 0.975000
v 0.975000 0.975000 -1.000000
v 0.975000 -0.975000 -1.000000
v 0.975000 -1.000000 0.975000
v 0.975000 1.000000 0.975000
v -1.000000 0.975000 -0.975000
v -1.000000 -0.975000 -0.975000
v 0.975000 -1.000000 -0.975000
v 0.975000 1.000000 -0.975000
v -0.975000 -1.000000 -0.975000
v -0.975000 -1.000000 0.975000
v -0.975000 1.000000 0.975000
v -0.975000 1.000000 -0.975000
v -1.000000 1.000000 1.000000
v -1.000000 1.000000 -1.000000
v 1.000000 1.000000 -1.000000
v 1.000000 1.000000 1.000000
v -1.000000 -1.000000 -1.000000
v -1.000000 -1.000000 1.000000
v 1.000000 -1.000000 -1.000000
v 1.000000 -1.000000 1.000000
v -1.000000 -1.000000 -1.000000
v -1.000000 -1.000000 1.000000
v 1.000000 -1.000000 -1.000000
v 1.000000 -1.000000 1.000000
vt 0.378125 0.996875
vt 0.621875 0.996875
vt 0.625000 1.000000
vt 0.375000 1.000000
vt 0.621875 0.753125
vt 0.378125 0.753125
vt 0.375000 0.750000
vt 0.625000 0.750000
vt 0.621875 0.503125
vt 0.378125 0.503125
vt 0.375000 0.500000
vt 0.625000 0.500000
vt 0.378125 0.746875
vt 0.621875 0.746875
vt 0.621875 0.253125
vt 0.378125 0.253125
vt 0.375000 0.250000
vt 0.625000 0.250000
vt 0.378125 0.496875
vt 0.621875 0.496875
vt 0.378125 0.003125
vt 0.378125 0.246875
vt 0.375000 0.000000
vt 0.621875 0.003125
vt 0.625000 0.000000
vt 0.621875 0.246875
vt 0.871875 0.746875
vt 0.871875 0.503125
vt 0.875000 0.500000
vt 0.875000 0.750000
vt 0.628125 0.503125
vt 0.628125 0.746875
vt 0.125000 0.500000
vt 0.125000 0.750000
vt 0.125000 0.750000
vt 0.125000 0.500000
vt 0.375000 0.500000
vt 0.375000 0.750000
vt 0.128125 0.503125
vt 0.128125 0.746875
vt 0.371875 0.503125
vt 0.371875 0.746875
vn 0.0000 0.0000 1.0000
vn 1.0000 0.0000 0.0000
vn 0.0000 0.0000 -1.0000
vn -1.0000 0.0000 0.0000
vn 0.0000 1.0000 0.0000
vn 0.0000 -1.0000 0.0000
usemtl None
s off
f 1/1/1 2/2/1 25/3/1 30/4/1
f 6/5/1 5/6/1 32/7/1 28/8/1
f 5/6/1 1/1/1 30/4/1 32/7/1
f 2/2/1 6/5/1 28/8/1 25/3/1
f 8/9/2 7/10/2 31/11/2 27/12/2
f 7/10/2 12/13/2 32/7/2 31/11/2
f 11/14/2 8/9/2 27/12/2 28/8/2
f 12/13/2 11/14/2 28/8/2 32/7/2
f 4/15/3 3/16/3 29/17/3 26/18/3
f 3/16/3 14/19/3 31/11/3 29/17/3
f 13/20/3 4/15/3 26/18/3 27/12/3
f 14/19/3 13/20/3 27/12/3 31/11/3
f 9/21/4 18/22/4 29/17/4 30/23/4
f 10/24/4 9/21/4 30/23/4 25/25/4
f 17/26/4 10/24/4 25/25/4 26/18/4
f 18/22/4 17/26/4 26/18/4 29/17/4
f 23/27/5 24/28/5 26/29/5 25/30/5
f 24/28/5 20/31/5 27/12/5 26/29/5
f 20/31/5 16/32/5 28/8/5 27/12/5
f 16/32/5 23/27/5 25/30/5 28/8/5
f 33/33/1 34/34/1 30/35/1 29/36/1
f 35/37/1 33/33/1 29/36/1 31/11/1
f 36/38/1 35/37/1 31/11/1 32/7/1
f 34/34/1 36/38/1 32/7/1 30/35/1
f 21/39/6 22/40/6 34/34/6 33/33/6
f 19/41/6 21/39/6 33/33/6 35/37/6
f 15/42/6 19/41/6 35/37/6 36/38/6
f 22/40/6 15/42/6 36/38/6 34/34/6
