# Blender v2.90.1 OBJ File: '就プレhouse1_bldg.blend'
# www.blender.org
mtllib house1.mtl
o 立方体.001_立方体.004
v -5.500000 2.000000 5.500000
v -5.500000 3.000000 5.500000
v -5.500000 2.000000 -5.500000
v -5.500000 3.000000 -5.500000
v 5.500000 2.000000 5.500000
v 5.500000 3.000000 5.500000
v 5.500000 2.000000 -5.500000
v 5.500000 3.000000 -5.500000
v -5.000000 -2.500000 5.000000
v -5.000000 2.500000 5.000000
v -5.000000 -2.500000 -5.000000
v -5.000000 2.500000 -5.000000
v 5.000000 -2.500000 5.000000
v 5.000000 2.500000 5.000000
v 5.000000 -2.500000 -5.000000
v 5.000000 2.500000 -5.000000
v -5.000000 -2.500000 0.000000
v -5.000000 2.500000 0.000000
v 5.000000 -2.500000 0.000000
v 5.000000 2.500000 0.000000
v -5.000000 2.500000 -3.332500
v 5.000000 -2.500000 -3.332500
v -5.000000 -2.500000 -3.332500
v 5.000000 2.500000 -3.332500
v -5.000000 -2.500000 -1.666250
v 5.000000 2.500000 -1.666250
v -5.000000 2.500000 -1.666250
v 5.000000 -2.500000 -1.666250
v -5.000000 -2.500000 1.667500
v 5.000000 2.500000 1.667500
v -5.000000 2.500000 1.667500
v 5.000000 -2.500000 1.667500
v -5.000000 -2.500000 3.333750
v 5.000000 2.500000 3.333750
v -5.000000 2.500000 3.333750
v 5.000000 -2.500000 3.333750
v -5.000000 0.832500 5.000000
v -5.000000 0.832500 -5.000000
v 5.000000 0.832500 -5.000000
v 5.000000 0.832500 5.000000
v 5.000000 0.832500 0.000000
v -5.000000 0.832500 0.000000
v 5.000000 0.832500 -3.332500
v -5.000000 1.124062 -3.499062
v -5.000000 1.124062 -1.499687
v 5.000000 0.832500 -1.666250
v -5.000000 0.832500 1.667500
v 5.000000 0.832500 1.667500
v -5.000000 0.832500 3.333750
v 5.000000 0.832500 3.333750
v -5.000000 -0.833750 -5.000000
v 5.000000 -0.833750 -5.000000
v 5.000000 -0.833750 5.000000
v 5.000000 -0.833750 0.000000
v -5.000000 -0.833750 0.000000
v 5.000000 -0.833750 -3.332500
v -5.000000 -1.125312 -3.499062
v -5.000000 -1.125312 -1.499687
v 5.000000 -0.833750 -1.666250
v -5.000000 -0.833750 1.667500
v 5.000000 -0.833750 1.667500
v -5.000000 -0.833750 3.333750
v 5.000000 -0.833750 3.333750
v -5.000000 -0.833750 5.000000
v -5.000000 1.249062 -1.249687
v -5.000000 1.249062 -3.749063
v -5.000000 -1.250312 -3.749063
v -5.000000 -1.250312 -1.249687
v -4.875000 1.124062 -1.499687
v -4.875000 1.124062 -3.499062
v -4.875000 -1.125312 -3.499062
v -4.875000 -1.125312 -1.499687
v -5.125000 1.249062 -1.249687
v -5.125000 1.249062 -3.749063
v -5.125000 -1.250312 -3.749063
v -5.125000 -1.250312 -1.249687
v -5.125000 1.124062 -1.499687
v -5.125000 1.124062 -3.499062
v -5.125000 -1.125312 -3.499062
v -5.125000 -1.125312 -1.499687
vt 0.673962 0.719649
vt 0.641521 0.687208
vt 0.673962 0.687208
vt 0.654575 0.665308
vt 0.622134 0.632867
vt 0.654575 0.632867
vt 0.565607 0.779125
vt 0.598048 0.746684
vt 0.598048 0.779125
vt 0.532920 0.779125
vt 0.565361 0.746684
vt 0.565361 0.779125
vt 0.641275 0.716946
vt 0.608834 0.749387
vt 0.608834 0.716946
vt 0.641521 0.752336
vt 0.673962 0.719895
vt 0.673962 0.752336
vt 0.694608 0.322131
vt 0.698297 0.281550
vt 0.698297 0.335645
vt 0.562411 0.226962
vt 0.532920 0.172867
vt 0.562411 0.172867
vt 0.684530 0.172867
vt 0.689444 0.226962
vt 0.684530 0.226962
vt 0.562658 0.172867
vt 0.592149 0.226962
vt 0.562658 0.226962
vt 0.638326 0.294798
vt 0.608834 0.299712
vt 0.608834 0.294798
vt 0.598506 0.776448
vt 0.603420 0.805940
vt 0.598506 0.805940
vt 0.662922 0.800779
vt 0.658008 0.771288
vt 0.662922 0.771288
vt 0.657761 0.340779
vt 0.652847 0.311288
vt 0.657761 0.311288
vt 0.663888 0.172867
vt 0.668802 0.226962
vt 0.663888 0.226962
vt 0.698297 0.281303
vt 0.693380 0.227208
vt 0.698297 0.227208
vt 0.603670 0.256946
vt 0.608588 0.311041
vt 0.603670 0.311041
vt 0.651625 0.220789
vt 0.622134 0.225707
vt 0.622134 0.220789
vt 0.593342 0.716946
vt 0.598260 0.746438
vt 0.593342 0.746438
vt 0.622134 0.211697
vt 0.662715 0.205554
vt 0.662715 0.212925
vt 0.694604 0.226962
vt 0.690918 0.186381
vt 0.694604 0.172867
vt 0.669048 0.172867
vt 0.673962 0.226962
vt 0.669048 0.226962
vt 0.613741 0.345940
vt 0.608827 0.316448
vt 0.613741 0.316448
vt 0.603666 0.776448
vt 0.608580 0.805940
vt 0.603666 0.805940
vt 0.674209 0.172867
vt 0.679123 0.226962
vt 0.674209 0.226962
vt 0.588178 0.716946
vt 0.593095 0.746438
vt 0.588178 0.746438
vt 0.608834 0.294551
vt 0.638326 0.289633
vt 0.638326 0.294551
vt 0.603424 0.311041
vt 0.598506 0.256946
vt 0.603424 0.256946
vt 0.598506 0.316202
vt 0.652601 0.311288
vt 0.652601 0.316202
vt 0.659735 0.662358
vt 0.654821 0.632867
vt 0.659735 0.632867
vt 0.690426 0.338028
vt 0.685512 0.308536
vt 0.690426 0.308536
vt 0.679369 0.172867
vt 0.684283 0.226962
vt 0.679369 0.226962
vt 0.710339 0.172867
vt 0.715253 0.226921
vt 0.710339 0.226921
vt 0.713782 0.281263
vt 0.708868 0.227208
vt 0.713782 0.227208
vt 0.704932 0.226921
vt 0.700015 0.172867
vt 0.704932 0.172867
vt 0.714029 0.227208
vt 0.718943 0.281263
vt 0.714029 0.281263
vt 0.689448 0.240722
vt 0.693133 0.308290
vt 0.689448 0.294776
vt 0.587931 0.284221
vt 0.587563 0.278324
vt 0.587931 0.278324
vt 0.669044 0.292583
vt 0.673962 0.346637
vt 0.669044 0.346637
vt 0.698544 0.281550
vt 0.703461 0.335604
vt 0.698544 0.335604
vt 0.718943 0.335604
vt 0.714029 0.281550
vt 0.718943 0.281550
vt 0.587221 0.227208
vt 0.641275 0.256700
vt 0.587221 0.256700
vt 0.679369 0.300426
vt 0.684283 0.354480
vt 0.679369 0.354480
vt 0.532920 0.256700
vt 0.586974 0.227208
vt 0.586974 0.256700
vt 0.689201 0.308290
vt 0.685512 0.240722
vt 0.689201 0.227208
vt 0.665109 0.306096
vt 0.668798 0.346637
vt 0.663880 0.346637
vt 0.532920 0.286438
vt 0.586974 0.256946
vt 0.586974 0.286438
vt 0.703708 0.227208
vt 0.708622 0.281262
vt 0.703708 0.281262
vt 0.621887 0.226921
vt 0.592396 0.172867
vt 0.621887 0.172867
vt 0.703708 0.281550
vt 0.708622 0.335604
vt 0.703708 0.335604
vt 0.608834 0.311041
vt 0.662889 0.306124
vt 0.662889 0.311041
vt 0.694850 0.172867
vt 0.699768 0.226921
vt 0.694850 0.226921
vt 0.622134 0.220543
vt 0.662675 0.214400
vt 0.662675 0.219314
vt 0.720414 0.172867
vt 0.716728 0.213408
vt 0.715500 0.172867
vt 0.705179 0.172867
vt 0.710093 0.226921
vt 0.705179 0.226921
vt 0.698544 0.227208
vt 0.703461 0.281263
vt 0.698544 0.281263
vt 0.708868 0.281550
vt 0.713782 0.335604
vt 0.708868 0.335604
vt 0.608834 0.305877
vt 0.662888 0.300963
vt 0.662888 0.305877
vt 0.906925 0.215122
vt 0.906927 0.355137
vt 0.742719 0.355137
vt 0.692411 0.308542
vt 0.693133 0.349920
vt 0.692411 0.349926
vt 0.615604 0.355708
vt 0.614919 0.316454
vt 0.615604 0.316448
vt 0.652240 0.226685
vt 0.651872 0.220789
vt 0.652240 0.220789
vt 0.587563 0.256946
vt 0.587931 0.264317
vt 0.587563 0.264317
vt 0.150202 0.227208
vt 0.156099 0.300180
vt 0.150202 0.300180
vt 0.615851 0.316454
vt 0.616536 0.355708
vt 0.615851 0.355714
vt 0.614673 0.355708
vt 0.613987 0.316454
vt 0.614673 0.316448
vt 0.622134 0.226322
vt 0.628030 0.225953
vt 0.628030 0.226322
vt 0.645823 0.293320
vt 0.649878 0.299954
vt 0.645823 0.299216
vt 0.719189 0.232797
vt 0.720205 0.288495
vt 0.719231 0.285568
vt 0.719189 0.294330
vt 0.720205 0.350028
vt 0.719231 0.347101
vt 0.645577 0.299216
vt 0.641521 0.292583
vt 0.645577 0.293320
vt 0.691479 0.308541
vt 0.692165 0.347796
vt 0.691479 0.347801
vt 0.685252 0.341810
vt 0.684530 0.300432
vt 0.685252 0.300426
vt 0.587563 0.272181
vt 0.587931 0.278078
vt 0.587563 0.278078
vt 0.587563 0.264564
vt 0.587931 0.271935
vt 0.587563 0.271935
vt 0.641521 0.719649
vt 0.622134 0.665308
vt 0.565607 0.746684
vt 0.532920 0.746684
vt 0.641275 0.749387
vt 0.641521 0.719895
vt 0.693380 0.281550
vt 0.532920 0.226962
vt 0.689444 0.172867
vt 0.592149 0.172867
vt 0.638326 0.299712
vt 0.603420 0.776448
vt 0.658008 0.800779
vt 0.652847 0.340779
vt 0.668802 0.172867
vt 0.693380 0.281303
vt 0.608588 0.256946
vt 0.651625 0.225707
vt 0.598260 0.716946
vt 0.622134 0.206783
vt 0.689690 0.226962
vt 0.673962 0.172867
vt 0.608827 0.345940
vt 0.608580 0.776448
vt 0.679123 0.172867
vt 0.593095 0.716946
vt 0.608834 0.289633
vt 0.598506 0.311041
vt 0.598506 0.311288
vt 0.654821 0.662358
vt 0.685512 0.338028
vt 0.684283 0.172867
vt 0.715253 0.172867
vt 0.708868 0.281263
vt 0.700015 0.226921
vt 0.718943 0.227208
vt 0.693133 0.227208
vt 0.587563 0.284221
vt 0.673962 0.292583
vt 0.703461 0.281550
vt 0.714029 0.335604
vt 0.641275 0.227208
vt 0.684283 0.300426
vt 0.532920 0.227208
vt 0.685512 0.294776
vt 0.668798 0.292583
vt 0.532920 0.256946
vt 0.708622 0.227208
vt 0.592396 0.226921
vt 0.708622 0.281550
vt 0.608834 0.306124
vt 0.699768 0.172867
vt 0.622134 0.213171
vt 0.720414 0.226921
vt 0.710093 0.172867
vt 0.703461 0.227208
vt 0.713782 0.281550
vt 0.608834 0.300963
vt 0.742719 0.215122
vt 0.742719 0.075104
vt 0.906925 0.075104
vt 0.693133 0.308536
vt 0.614919 0.355714
vt 0.651872 0.226685
vt 0.587931 0.256946
vt 0.156099 0.227208
vt 0.616536 0.316448
vt 0.613987 0.355714
vt 0.622134 0.225953
vt 0.649878 0.292583
vt 0.720205 0.227208
vt 0.720205 0.288741
vt 0.641521 0.299954
vt 0.692165 0.308536
vt 0.684530 0.341816
vt 0.587931 0.272181
vt 0.587931 0.264564
vn -1.0000 0.0000 0.0000
vn 0.0000 0.0000 -1.0000
vn 1.0000 0.0000 0.0000
vn 0.0000 0.0000 1.0000
vn 0.0000 -1.0000 0.0000
vn 0.0000 1.0000 0.0000
usemtl マテリアル
s off
f 2/1/1 3/2/1 1/3/1
f 4/4/2 7/5/2 3/6/2
f 8/7/3 5/8/3 7/9/3
f 6/10/4 1/11/4 5/12/4
f 7/13/5 1/14/5 3/15/5
f 4/16/6 6/17/6 8/18/6
f 66/19/1 12/20/1 38/21/1
f 12/22/2 39/23/2 38/24/2
f 34/25/3 40/26/3 50/27/3
f 14/28/4 37/29/4 40/30/4
f 36/31/5 9/32/5 33/33/5
f 35/34/6 14/35/6 34/36/6
f 27/37/6 20/38/6 26/39/6
f 28/40/5 17/41/5 25/42/5
f 26/43/3 41/44/3 46/45/3
f 31/46/1 42/47/1 47/48/1
f 16/49/3 43/50/3 39/51/3
f 15/52/5 23/53/5 11/54/5
f 12/55/6 24/56/6 16/57/6
f 27/58/1 66/59/1 65/60/1
f 18/61/1 65/62/1 42/63/1
f 24/64/3 46/65/3 43/66/3
f 22/67/5 25/68/5 23/69/5
f 21/70/6 26/71/6 24/72/6
f 35/73/1 47/74/1 49/75/1
f 18/76/6 30/77/6 20/78/6
f 19/79/5 29/80/5 17/81/5
f 20/82/3 48/83/3 41/84/3
f 10/85/1 49/86/1 37/87/1
f 31/88/6 34/89/6 30/90/6
f 32/91/5 33/92/5 29/93/5
f 30/94/3 50/95/3 48/96/3
f 48/97/3 63/98/3 61/99/3
f 37/100/1 62/101/1 64/102/1
f 41/103/3 61/104/3 54/105/3
f 43/106/3 59/107/3 56/108/3
f 42/109/1 68/110/1 55/111/1
f 58/112/6 71/113/6 57/114/6
f 39/115/3 56/116/3 52/117/3
f 47/118/1 55/119/1 60/120/1
f 46/121/3 54/122/3 59/123/3
f 53/124/4 37/125/4 64/126/4
f 50/127/3 53/128/3 63/129/3
f 38/130/2 52/131/2 51/132/2
f 66/133/1 51/134/1 67/135/1
f 67/136/1 11/137/1 23/138/1
f 51/139/2 15/140/2 11/141/2
f 63/142/3 13/143/3 36/144/3
f 53/145/4 9/146/4 13/147/4
f 59/148/3 19/149/3 28/150/3
f 60/151/1 17/152/1 29/153/1
f 52/154/3 22/155/3 15/156/3
f 68/157/1 23/158/1 25/159/1
f 17/160/1 68/161/1 25/162/1
f 56/163/3 28/164/3 22/165/3
f 54/166/3 32/167/3 19/168/3
f 64/169/1 33/170/1 9/171/1
f 61/172/3 36/173/3 32/174/3
f 60/175/1 29/176/1 33/177/1
f 67/178/2 74/179/2 66/180/2
f 44/181/4 79/182/4 57/183/4
f 57/184/6 80/185/6 58/186/6
f 68/187/5 75/188/5 67/189/5
f 69/190/1 71/191/1 72/192/1
f 57/193/4 70/194/4 44/195/4
f 45/196/2 72/197/2 58/198/2
f 44/199/5 69/200/5 45/201/5
f 77/202/1 74/203/1 78/204/1
f 78/205/1 75/206/1 79/207/1
f 80/208/1 73/209/1 77/210/1
f 79/211/1 76/212/1 80/213/1
f 58/214/2 77/215/2 45/216/2
f 65/217/4 76/218/4 68/219/4
f 45/220/5 78/221/5 44/222/5
f 66/223/6 73/224/6 65/225/6
f 2/1/1 4/226/1 3/2/1
f 4/4/2 8/227/2 7/5/2
f 8/7/3 6/228/3 5/8/3
f 6/10/4 2/229/4 1/11/4
f 7/13/5 5/230/5 1/14/5
f 4/16/6 2/231/6 6/17/6
f 66/19/1 21/232/1 12/20/1
f 12/22/2 16/233/2 39/23/2
f 34/25/3 14/234/3 40/26/3
f 14/28/4 10/235/4 37/29/4
f 36/31/5 13/236/5 9/32/5
f 35/34/6 10/237/6 14/35/6
f 27/37/6 18/238/6 20/38/6
f 28/40/5 19/239/5 17/41/5
f 26/43/3 20/240/3 41/44/3
f 31/46/1 18/241/1 42/47/1
f 16/49/3 24/242/3 43/50/3
f 15/52/5 22/243/5 23/53/5
f 12/55/6 21/244/6 24/56/6
f 27/58/1 21/245/1 66/59/1
f 18/61/1 27/246/1 65/62/1
f 24/64/3 26/247/3 46/65/3
f 22/67/5 28/248/5 25/68/5
f 21/70/6 27/249/6 26/71/6
f 35/73/1 31/250/1 47/74/1
f 18/76/6 31/251/6 30/77/6
f 19/79/5 32/252/5 29/80/5
f 20/82/3 30/253/3 48/83/3
f 10/85/1 35/254/1 49/86/1
f 31/88/6 35/255/6 34/89/6
f 32/91/5 36/256/5 33/92/5
f 30/94/3 34/257/3 50/95/3
f 48/97/3 50/258/3 63/98/3
f 37/100/1 49/259/1 62/101/1
f 41/103/3 48/260/3 61/104/3
f 43/106/3 46/261/3 59/107/3
f 42/109/1 65/262/1 68/110/1
f 58/112/6 72/263/6 71/113/6
f 39/115/3 43/264/3 56/116/3
f 47/118/1 42/265/1 55/119/1
f 46/121/3 41/266/3 54/122/3
f 53/124/4 40/267/4 37/125/4
f 50/127/3 40/268/3 53/128/3
f 38/130/2 39/269/2 52/131/2
f 66/133/1 38/270/1 51/134/1
f 67/136/1 51/271/1 11/137/1
f 51/139/2 52/272/2 15/140/2
f 63/142/3 53/273/3 13/143/3
f 53/145/4 64/274/4 9/146/4
f 59/148/3 54/275/3 19/149/3
f 60/151/1 55/276/1 17/152/1
f 52/154/3 56/277/3 22/155/3
f 68/157/1 67/278/1 23/158/1
f 17/160/1 55/279/1 68/161/1
f 56/163/3 59/280/3 28/164/3
f 54/166/3 61/281/3 32/167/3
f 64/169/1 62/282/1 33/170/1
f 61/172/3 63/283/3 36/173/3
f 33/177/1 62/284/1 60/175/1
f 62/284/1 49/285/1 60/175/1
f 49/285/1 47/286/1 60/175/1
f 67/178/2 75/287/2 74/179/2
f 44/181/4 78/288/4 79/182/4
f 57/184/6 79/289/6 80/185/6
f 68/187/5 76/290/5 75/188/5
f 69/190/1 70/291/1 71/191/1
f 57/193/4 71/292/4 70/194/4
f 45/196/2 69/293/2 72/197/2
f 44/199/5 70/294/5 69/200/5
f 77/202/1 73/295/1 74/203/1
f 78/205/1 74/296/1 75/206/1
f 80/208/1 76/297/1 73/209/1
f 79/211/1 75/298/1 76/212/1
f 58/214/2 80/299/2 77/215/2
f 65/217/4 73/300/4 76/218/4
f 45/220/5 77/301/5 78/221/5
f 66/223/6 74/302/6 73/224/6
